<?xml version="1.0" encoding="UTF-8"?>
<!-- Generator: Adobe Illustrator 13.0.1, SVG Export Plug-In  -->
<!DOCTYPE svg PUBLIC "-//W3C//DTD SVG 1.1//EN" "http://www.w3.org/Graphics/SVG/1.1/DTD/svg11.dtd">
<svg version="1.1" xmlns="http://www.w3.org/2000/svg" xmlns:xlink="http://www.w3.org/1999/xlink" xmlns:a="http://ns.adobe.com/AdobeSVGViewerExtensions/3.0/" x="0px" y="0px" width="210px" height="58px" viewBox="-0.7 -0.021 113 31" enable-background="new -0.7 -0.021 113 31" xml:space="preserve">
<defs>
</defs>
<rect x="57.825" y="15.383" fill="#0075BE" width="5.199" height="14.105"/>
<path fill="#0075BE" d="M40.9,22.092H47.3c0.87-0.087,1.54-0.676,1.54-1.389c0-0.713-0.63-1.328-1.5-1.419H40.9V22.092   M44.45,25.827H40.9v3.661H35.72V15.384h5.2c7.05,0,7.04,0.012,7.04,0.012h0.141c3.52,0,6.369,2.342,6.369,5.231  c0,2.245-1.8,4.142-4.25,4.875l4.44,3.986h-7.29L44.45,25.827z"/>
<polyline fill="#0075BE" points="105.58,15.384 110.78,15.384 110.78,29.498 105.58,29.498 96.84,21.869 96.84,29.498 91.64,29.498 91.64,15.384 96.84,15.384 105.58,22.916 105.58,15.384"/>
<path fill-rule="evenodd" clip-rule="evenodd" fill="#0075BE" d="M0.59,17.633c1.73-4.342,6.88-7.516,10.38-9.028  c7.561-3.266,15.5-5.183,23.45-6.524c8.54-1.441,13.14-1.618,21.601-1.907C66.45-0.184,72.38-0.035,82.79,1.035  c10.77,1.108,19.55,3.119,28.05,5.651l0.931,2.791C102.17,7.323,94.66,6.144,85.31,5.405C75.26,4.611,70.03,4.637,60.45,5.097  c-15.71,0.753-27.2,3.446-35.641,6.575c4.471,1.839,7.49,5.057,7.49,8.723c0,5.677-7.229,10.28-16.149,10.28S0,26.072,0,20.396  C0,19.438,0.21,18.512,0.59,17.633 M8.44,20.061c0-2.045,3.449-3.702,7.71-3.702c4.26,0,7.71,1.657,7.71,3.702  s-3.45,3.702-7.71,3.702C11.89,23.762,8.44,22.105,8.44,20.061z"/>
<path fill-rule="evenodd" clip-rule="evenodd" fill="#0075BE" d="M66.21,22.476c0-4.131,4.94-7.479,11.04-7.479  c6.09,0,11.04,3.348,11.04,7.479c0,4.13-4.95,7.478-11.04,7.478C71.15,29.953,66.21,26.605,66.21,22.476 M72.24,22.476  c0-1.533,2.24-2.776,5.01-2.776c2.76,0,5,1.243,5,2.776c0,1.533-2.24,2.775-5,2.775C74.48,25.25,72.24,24.008,72.24,22.476z"/>
</svg>